HIERARCHY
ROOT simHips
{
  OFFSET -68.3785 100.059 260.003
  CHANNELS 6 Xposition Yposition Zposition Zrotation Xrotation Yrotation
  JOINT simSpine
  {
    OFFSET -0.000354287 21.3001 -0.0169239
    CHANNELS 3 Zrotation Xrotation Yrotation
    JOINT simLeftArm
    {
      OFFSET 13.5181 21.3012 0
      CHANNELS 3 Zrotation Xrotation Yrotation
      JOINT simLeftForeArm
      {
        OFFSET 24.5783 0 1.00687e-005
        CHANNELS 3 Zrotation Xrotation Yrotation
        JOINT simLeftHand
        {
          OFFSET 24.5783 0 0
          CHANNELS 3 Zrotation Xrotation Yrotation
          End Site
          {
            OFFSET 7.32568 1.52588e-005 0.0169305
          }
        }
      }
    }
    JOINT simHead
    {
      OFFSET 0 27.4458 -0.004888
      CHANNELS 3 Zrotation Xrotation Yrotation
      End Site
      {
        OFFSET 0 0 0
      }
    }
    JOINT simRightArm
    {
      OFFSET -13.5174 21.3012 0
      CHANNELS 3 Zrotation Xrotation Yrotation
      JOINT simRightForeArm
      {
        OFFSET -24.5783 -3.50495e-005 0
        CHANNELS 3 Zrotation Xrotation Yrotation
        JOINT simRightHand
        {
          OFFSET -24.5783 -1.48483e-005 0
          CHANNELS 3 Zrotation Xrotation Yrotation
          End Site
          {
            OFFSET -7.32568 1.52588e-005 0.0169305
          }
        }
      }
    }
  }
  JOINT simRightUpLeg
  {
    OFFSET -8.44614 -9.41038 0.835685
    CHANNELS 3 Zrotation Xrotation Yrotation
    JOINT simRightLeg
    {
      OFFSET 9.38052e-005 -40.9639 0.000210361
      CHANNELS 3 Zrotation Xrotation Yrotation
      JOINT simRightFoot
      {
        OFFSET 0 -40.9639 0
        CHANNELS 3 Zrotation Xrotation Yrotation
        End Site
        {
          OFFSET 0.50614 -9.67405 14.6709
        }
      }
    }
  }
  JOINT simLeftUpLeg
  {
    OFFSET 8.44614 -9.41038 0.835688
    CHANNELS 3 Zrotation Xrotation Yrotation
    JOINT simLeftLeg
    {
      OFFSET 0 -40.9639 0
      CHANNELS 3 Zrotation Xrotation Yrotation
      JOINT simLeftFoot
      {
        OFFSET 0 -40.9639 0
        CHANNELS 3 Zrotation Xrotation Yrotation
        End Site
        {
          OFFSET -0.50614 -9.67405 14.6709
        }
      }
    }
  }
}
MOTION
Frames:	14
Frame Time:	0.0333333
14.7447 99.0896 -26.5304 -2.91932 3.85828 2.65289 1.17031 6.9074 -2.88993 -82.2951 57.4584 4.42489 -60.2246 -27.4801 -98.963 4.25958 0.854462 11.1605 -5.44215 -5.18713 7.82305 109.882 62.7837 -37.9707 -47.122 -44.8452 78.0834 19.5518 -9.19778 1.08264 -9.10475 -25.1974 -9.60302 -0.887996 57.3199 -21.322 10.6534 4.99841 -0.995452 -1.06477 -7.59701 -2.42834 2.12733 14.7709 14.8834 -0.269655 -8.78185 0.116907 
15.4082 99.2701 -23.1373 -3.10466 3.48191 3.34003 1.47015 6.98063 -4.22825 -79.6686 58.5212 2.20358 -59.7828 -27.3346 -99.1747 4.21355 0.823913 11.1786 -5.01379 -5.40155 8.11534 110.252 61.9392 -38.0672 -46.8435 -45.4167 78.8752 19.1703 -8.93477 1.1719 -7.97547 -28.6607 -7.83767 1.76647 52.0174 -27.0275 9.79636 3.64192 -0.801276 -1.13432 -3.08951 -2.95653 2.15023 11.1133 15.0152 -0.414533 -8.69397 0.102697 
16.0123 99.1853 -19.6631 -3.12378 3.33322 4.29322 1.74177 6.86579 -5.65591 -77.0659 59.5395 0.0384392 -59.3585 -27.0654 -99.4538 4.08241 0.739379 11.1083 -4.87009 -5.84617 8.29608 110.72 61.3127 -38.4958 -46.7172 -45.9829 79.5461 18.7441 -8.61961 1.30102 -7.16298 -30.7032 -5.5764 4.02527 42.8663 -29.6604 9.73591 4.03261 -0.798278 -1.36271 0.886893 -2.47112 2.45639 8.05373 14.0143 -0.725563 -8.90353 0.0775517 
16.562 98.9145 -16.2284 -2.8578 3.66713 5.32807 1.87097 6.47548 -6.92609 -74.3743 60.3882 -2.55178 -59.1546 -26.9921 -99.5856 4.01274 0.700281 11.0539 -4.79067 -6.41691 8.27757 110.831 60.7529 -38.6341 -46.8145 -46.3426 79.8226 18.2579 -8.2985 1.44435 -6.61104 -31.3194 -4.85615 3.55706 29.9836 -28.393 10.1013 5.89896 -0.957956 -1.71851 4.29173 -1.7142 2.4912 5.05323 12.7087 -0.973314 -8.9332 0.0577113 
17.0499 98.5154 -12.8028 -2.26685 4.52246 6.27727 1.78654 5.78092 -7.9102 -71.6383 60.9598 -5.50038 -59.2415 -27.0384 -99.4781 3.94629 0.67426 11.0834 -4.8674 -7.11852 8.06096 110.808 60.3177 -38.6767 -47.346 -46.5261 79.5115 17.9247 -8.03419 1.70365 -6.63571 -30.6956 -6.69235 2.01787 14.5134 -23.533 10.1943 7.73264 -1.10601 -2.37698 5.97654 -0.561274 2.41521 4.3843 10.9816 -1.54861 -9.9021 0.035722 
17.455 97.8358 -9.2299 -1.38686 5.73958 7.08568 1.54455 4.87725 -8.52364 -68.9688 61.3746 -8.68302 -59.6911 -27.2573 -99.0558 3.83776 0.646241 11.0294 -5.01931 -7.79025 7.65065 110.752 59.8314 -38.6812 -47.9007 -46.59 78.9665 17.7079 -7.81886 2.05252 -9.17773 -36.1016 -12.5218 1.84572 12.2211 -14.5949 11.7344 1.94742 -0.658344 -3.27402 6.37506 0.765417 2.32103 5.83552 9.02775 -2.43751 -11.7061 -0.0199821 
17.6989 97.0996 -5.41425 -0.468969 6.49976 8.02669 1.31141 4.27749 -8.97924 -67.3538 61.6125 -10.8841 -60.0675 -27.6472 -98.2928 3.72284 0.633612 11.1374 -5.1995 -8.53315 7.06 111.325 59.0172 -39.0952 -48.7011 -46.4747 78.0786 17.6694 -7.68272 2.46265 -10.6474 -38.2944 -16.3606 2.18346 7.97517 -8.09506 12.1355 -2.36076 -0.184076 -3.82439 7.12535 2.10389 2.14159 7.85588 6.80072 -3.49913 -13.1711 -0.123095 
17.8221 96.3621 -1.35096 0.30086 6.61649 9.02713 1.26589 4.04456 -9.38603 -67.3296 61.8344 -11.2552 -60.7122 -27.8985 -97.7721 3.72625 0.660429 11.3154 -5.42392 -9.22414 6.4619 112.193 58.1969 -39.7485 -49.1176 -46.3214 77.4978 17.7214 -7.6944 2.64404 -11.4901 -39.3718 -17.4735 1.97568 8.27768 -5.41463 11.7634 -4.17861 -0.00176205 -3.87316 8.66933 2.61055 2.00952 9.92822 4.92547 -4.86003 -13.9133 -0.262365 
17.8334 95.5778 3.06246 0.837013 6.01022 10.1726 1.44847 4.08185 -9.92782 -69.5406 62.1275 -8.90169 -61.4409 -27.7105 -97.873 4.03431 0.778275 11.6258 -5.66514 -9.66905 6.1453 113.262 57.4996 -40.6171 -49.0782 -46.1675 77.433 17.8759 -7.84087 2.52545 -11.2268 -39.4013 -15.3398 0.536882 13.4296 -7.54999 10.2134 -2.37393 -0.206585 -3.30472 11.7845 1.85406 1.72666 10.6619 3.87295 -5.46304 -13.1691 -0.266184 
17.6721 94.9703 8.00041 1.19511 5.40046 12.0161 1.60783 3.82783 -10.9086 -73.6565 62.6943 -4.22884 -61.9258 -27.6364 -98.1943 4.04911 0.774775 11.619 -5.6532 -9.70984 5.81077 114.122 57.3145 -41.3739 -49.0527 -46.0591 77.3206 18.2453 -8.08408 2.40841 -10.2642 -37.6217 -11.8166 -0.688312 15.1776 -12.8629 5.38816 3.06409 -0.360106 -2.15967 15.8118 1.78911 1.26651 9.42057 2.06854 -2.83579 -10.0517 0.15489 
17.4991 94.6569 12.8027 1.32047 5.05468 13.5344 1.80843 3.3844 -11.4327 -78.062 62.6169 0.790325 -62.5725 -27.4148 -98.4271 4.34178 0.88741 11.5209 -5.16656 -9.48174 5.52367 114.482 57.7108 -41.7548 -48.5078 -45.9847 77.5902 18.5698 -8.30067 2.26676 -9.47875 -35.5329 -9.45435 -0.910278 16.5697 -16.1288 0.997853 7.52223 -0.0686881 -0.586133 14.6736 2.76162 1.91868 17.6271 -0.762407 -4.79663 -8.15688 0.0555415 
17.3172 94.6993 17.2733 1.14264 4.99016 14.4252 2.05726 2.84899 -11.2397 -81.7881 61.6692 5.07568 -63.0401 -27.0742 -98.3987 4.81928 1.05853 11.5948 -4.13272 -8.9599 5.32725 114.265 58.7802 -41.7712 -47.2998 -45.9686 78.3839 18.8182 -8.52981 2.01925 -8.65921 -33.381 -8.34277 -0.283396 17.6142 -16.1989 -1.48823 9.07219 0.249334 2.1013 12.4642 4.73935 1.49506 26.1951 -3.07108 -7.01828 -0.343477 0.283059 
16.9539 95.3497 21.7737 0.654365 4.50037 15.4533 2.34779 2.84597 -10.9186 -84.5484 60.2699 8.34321 -62.7748 -27.3905 -97.8253 4.86183 1.10977 11.4767 -2.29361 -8.33383 4.94496 113.744 60.2624 -41.3772 -46.0754 -45.7571 78.9484 18.997 -8.75983 1.80612 -6.69497 -30.104 -4.89496 -0.00505141 17.9261 -19.7669 -1.64221 6.79289 0.224387 4.89522 9.92564 5.91005 1.68481 32.5245 -2.36624 -11.191 15.2944 1.73439 
16.5019 96.1662 25.9693 -0.0238369 3.93762 16.7221 2.70874 3.09506 -10.4579 -86.2132 59.5305 10.6594 -62.2857 -27.6136 -97.7944 4.83694 1.12699 11.1949 -0.271851 -8.07397 4.073 112.813 61.6973 -40.5457 -44.8198 -45.7138 79.7723 19.0669 -8.9558 1.51231 -4.67485 -28.0167 -2.12978 0.298102 20.5672 -23.3829 -0.811434 2.36902 0.0747102 6.60052 6.13058 6.75954 3.50978 37.4229 1.05198 -11.7961 29.696 3.39242 
